<?xml version="1.0" encoding="UTF-8"?>
<!DOCTYPE svg PUBLIC "-//W3C//DTD SVG 1.1//EN" "http://www.w3.org/Graphics/SVG/1.1/DTD/svg11.dtd">
<svg xmlns="http://www.w3.org/2000/svg" version="1.1" width="512px" height="512px" style="shape-rendering:geometricPrecision; text-rendering:geometricPrecision; image-rendering:optimizeQuality; fill-rule:evenodd; clip-rule:evenodd" xmlns:xlink="http://www.w3.org/1999/xlink">
<g><path style="opacity:0.999" fill="#fefdfd" d="M 31.5,31.5 C 180.834,31.3333 330.167,31.5 479.5,32C 491.333,35.8333 499.167,43.6667 503,55.5C 503.667,188.833 503.667,322.167 503,455.5C 499.167,467.333 491.333,475.167 479.5,479C 330.167,479.667 180.833,479.667 31.5,479C 19.6667,475.167 11.8333,467.333 8,455.5C 7.33333,322.167 7.33333,188.833 8,55.5C 12.0179,43.6498 19.8512,35.6498 31.5,31.5 Z"/></g>
<g><path style="opacity:1" fill="#be1827" d="M 92.5,64.5 C 130.833,64.5 169.167,64.5 207.5,64.5C 207.5,66.5 207.5,68.5 207.5,70.5C 169.167,70.5 130.833,70.5 92.5,70.5C 92.5,68.5 92.5,66.5 92.5,64.5 Z"/></g>
<g><path style="opacity:1" fill="#d52936" d="M 207.5,64.5 C 239.167,64.5 270.833,64.5 302.5,64.5C 302.5,66.5 302.5,68.5 302.5,70.5C 270.833,70.5 239.167,70.5 207.5,70.5C 207.5,68.5 207.5,66.5 207.5,64.5 Z"/></g>
<g><path style="opacity:1" fill="#dc4348" d="M 302.5,64.5 C 321.833,64.5 341.167,64.5 360.5,64.5C 360.5,66.5 360.5,68.5 360.5,70.5C 344.325,70.1703 328.325,70.5036 312.5,71.5C 228.167,71.5 143.833,71.5 59.5,71.5C 70.3206,70.5054 81.3206,70.1721 92.5,70.5C 130.833,70.5 169.167,70.5 207.5,70.5C 239.167,70.5 270.833,70.5 302.5,70.5C 302.5,68.5 302.5,66.5 302.5,64.5 Z"/></g>
<g><path style="opacity:1" fill="#e85e5e" d="M 360.5,64.5 C 378.5,64.5 396.5,64.5 414.5,64.5C 414.5,66.5 414.5,68.5 414.5,70.5C 409.305,70.1795 404.305,70.5128 399.5,71.5C 370.5,71.5 341.5,71.5 312.5,71.5C 328.325,70.5036 344.325,70.1703 360.5,70.5C 360.5,68.5 360.5,66.5 360.5,64.5 Z"/></g>
<g><path style="opacity:1" fill="#ee7978" d="M 414.5,64.5 C 422.833,64.5 431.167,64.5 439.5,64.5C 439.5,66.5 439.5,68.5 439.5,70.5C 433.31,70.1771 427.31,70.5104 421.5,71.5C 414.167,71.5 406.833,71.5 399.5,71.5C 404.305,70.5128 409.305,70.1795 414.5,70.5C 414.5,68.5 414.5,66.5 414.5,64.5 Z"/></g>
<g><path style="opacity:1" fill="#a11c22" d="M 54.5,64.5 C 67.1667,64.5 79.8333,64.5 92.5,64.5C 92.5,66.5 92.5,68.5 92.5,70.5C 81.3206,70.1721 70.3206,70.5054 59.5,71.5C 57.901,71.2322 56.5676,71.5655 55.5,72.5C 55.1667,72.5 54.8333,72.5 54.5,72.5C 53.5,72.8333 52.8333,73.5 52.5,74.5C 51.1667,75.1667 51.1667,75.8333 52.5,76.5C 52.5,77.1667 52.8333,77.5 53.5,77.5C 53.5,77.8333 53.5,78.1667 53.5,78.5C 53.3359,81.1873 53.5026,83.854 54,86.5C 57.0852,91.672 60.4186,96.672 64,101.5C 64.3333,104.833 64.6667,108.167 65,111.5C 66.6667,114.167 68.3333,116.833 70,119.5C 71.7316,127.968 75.3982,135.634 81,142.5C 82.0642,145.799 82.8975,149.132 83.5,152.5C 80.4947,158.158 76.328,162.825 71,166.5C 70.3877,168.237 71.0543,169.237 73,169.5C 74.982,169.01 76.6487,168.01 78,166.5C 78.1667,166.833 78.3333,167.167 78.5,167.5C 76.4773,169.853 74.4773,172.186 72.5,174.5C 70.8639,173.251 69.6972,171.584 69,169.5C 68.6667,166.5 68.3333,163.5 68,160.5C 67.6667,160.167 67.3333,159.833 67,159.5C 66.6667,161.5 66.3333,163.5 66,165.5C 65.6667,162.5 65.3333,159.5 65,156.5C 62.5841,151.999 59.9175,147.666 57,143.5C 56.6667,140.167 56.3333,136.833 56,133.5C 52.3333,127.833 48.6667,122.167 45,116.5C 44.6667,113.167 44.3333,109.833 44,106.5C 42.9702,104.654 41.8036,102.987 40.5,101.5C 40.3336,92.8269 40.5002,84.1603 41,75.5C 43.5861,69.4077 48.0861,65.741 54.5,64.5 Z"/></g>
<g><path style="opacity:1" fill="#fcf2f3" d="M 59.5,71.5 C 143.833,71.5 228.167,71.5 312.5,71.5C 341.5,71.5 370.5,71.5 399.5,71.5C 406.833,71.5 414.167,71.5 421.5,71.5C 432.833,71.5 444.167,71.5 455.5,71.5C 455.918,72.2216 456.584,72.7216 457.5,73C 323.333,73.8327 189.333,73.666 55.5,72.5C 56.5676,71.5655 57.901,71.2322 59.5,71.5 Z"/></g>
<g><path style="opacity:1" fill="#f7d8da" d="M 455.5,71.5 C 457.103,71.3118 458.437,71.8118 459.5,73C 459.347,74.2087 459.014,75.3754 458.5,76.5C 323.505,75.3077 188.839,73.9743 54.5,72.5C 54.8333,72.5 55.1667,72.5 55.5,72.5C 189.333,73.666 323.333,73.8327 457.5,73C 456.584,72.7216 455.918,72.2216 455.5,71.5 Z"/></g>
<g><path style="opacity:1" fill="#f1c1c5" d="M 54.5,72.5 C 188.839,73.9743 323.505,75.3077 458.5,76.5C 458.5,77.1667 458.167,77.5 457.5,77.5C 322.439,75.9884 187.439,74.9884 52.5,74.5C 52.8333,73.5 53.5,72.8333 54.5,72.5 Z"/></g>
<g><path style="opacity:1" fill="#ed9195" d="M 54.5,64.5 C 188.333,63.334 322.333,63.1673 456.5,64C 464.026,66.193 468.86,71.0263 471,78.5C 471.5,94.1631 471.667,109.83 471.5,125.5C 462.635,125.713 454.635,128.38 447.5,133.5C 447.838,131.146 448.338,128.813 449,126.5C 450.755,125.33 451.755,123.663 452,121.5C 452.333,122.167 452.667,122.833 453,123.5C 454.212,122.224 455.045,120.724 455.5,119C 455.94,112.352 456.774,105.852 458,99.5C 458.831,93.1405 458.664,86.8072 457.5,80.5C 455.196,82.4311 453.362,84.7644 452,87.5C 450.991,89.0249 450.491,90.6916 450.5,92.5C 444.802,92.404 439.135,91.904 433.5,91C 418.399,88.4745 403.399,85.4745 388.5,82C 365.851,80.7589 343.184,80.2589 320.5,80.5C 319.5,80.5 318.5,80.5 317.5,80.5C 293.358,78.8396 269.025,78.0063 244.5,78C 180.834,77.5 117.168,77.3333 53.5,77.5C 52.8333,77.5 52.5,77.1667 52.5,76.5C 178.205,75.4029 303.871,76.9029 429.5,81C 436.176,82.1203 442.842,83.287 449.5,84.5C 452.376,82.4236 455.043,80.0903 457.5,77.5C 458.167,77.5 458.5,77.1667 458.5,76.5C 459.014,75.3754 459.347,74.2087 459.5,73C 458.437,71.8118 457.103,71.3118 455.5,71.5C 444.167,71.5 432.833,71.5 421.5,71.5C 427.31,70.5104 433.31,70.1771 439.5,70.5C 439.5,68.5 439.5,66.5 439.5,64.5C 431.167,64.5 422.833,64.5 414.5,64.5C 396.5,64.5 378.5,64.5 360.5,64.5C 341.167,64.5 321.833,64.5 302.5,64.5C 270.833,64.5 239.167,64.5 207.5,64.5C 169.167,64.5 130.833,64.5 92.5,64.5C 79.8333,64.5 67.1667,64.5 54.5,64.5 Z"/></g>
<g><path style="opacity:1" fill="#f3b1b4" d="M 52.5,74.5 C 187.439,74.9884 322.439,75.9884 457.5,77.5C 455.043,80.0903 452.376,82.4236 449.5,84.5C 442.842,83.287 436.176,82.1203 429.5,81C 303.871,76.9029 178.205,75.4029 52.5,76.5C 51.1667,75.8333 51.1667,75.1667 52.5,74.5 Z"/></g>
<g><path style="opacity:1" fill="#a71c23" d="M 53.5,78.5 C 54.609,78.5569 55.609,78.8902 56.5,79.5C 56.5,79.8333 56.5,80.1667 56.5,80.5C 58.4121,82.6572 60.0787,84.9906 61.5,87.5C 62.5736,88.8846 63.9069,90.0513 65.5,91C 75.828,91.4998 86.1613,91.6665 96.5,91.5C 97.5676,92.4345 98.901,92.7678 100.5,92.5C 101.16,99.7045 103.994,106.038 109,111.5C 110.009,113.025 110.509,114.692 110.5,116.5C 108.213,117.619 106.379,119.285 105,121.5C 99.1667,131.167 93.3333,140.833 87.5,150.5C 86.4231,151.705 85.0898,152.372 83.5,152.5C 82.8975,149.132 82.0642,145.799 81,142.5C 75.3982,135.634 71.7316,127.968 70,119.5C 68.3333,116.833 66.6667,114.167 65,111.5C 64.6667,108.167 64.3333,104.833 64,101.5C 60.4186,96.672 57.0852,91.672 54,86.5C 53.5026,83.854 53.3359,81.1873 53.5,78.5 Z"/></g>
<g><path style="opacity:1" fill="#e1848d" d="M 53.5,78.5 C 53.5,78.1667 53.5,77.8333 53.5,77.5C 117.168,77.3333 180.834,77.5 244.5,78C 269.025,78.0063 293.358,78.8396 317.5,80.5C 230.505,79.5675 143.505,79.2342 56.5,79.5C 55.609,78.8902 54.609,78.5569 53.5,78.5 Z"/></g>
<g><path style="opacity:1" fill="#de737d" d="M 56.5,80.5 C 56.5,80.1667 56.5,79.8333 56.5,79.5C 143.505,79.2342 230.505,79.5675 317.5,80.5C 318.5,80.5 319.5,80.5 320.5,80.5C 320.5,80.8333 320.5,81.1667 320.5,81.5C 316.833,81.5 313.167,81.5 309.5,81.5C 244.833,81.5 180.167,81.5 115.5,81.5C 95.7872,81.8091 76.1205,81.4758 56.5,80.5 Z"/></g>
<g><path style="opacity:1" fill="#d95c67" d="M 115.5,81.5 C 180.167,81.5 244.833,81.5 309.5,81.5C 311.969,82.3171 314.635,82.8171 317.5,83C 315.618,83.1981 313.952,83.6981 312.5,84.5C 302.833,85.8333 293.167,85.8333 283.5,84.5C 261.672,83.5272 240.005,83.8605 218.5,85.5C 194.833,85.5 171.167,85.5 147.5,85.5C 136.668,84.4264 126.001,83.0931 115.5,81.5 Z"/></g>
<g><path style="opacity:1" fill="#c65357" d="M 56.5,80.5 C 76.1205,81.4758 95.7872,81.8091 115.5,81.5C 126.001,83.0931 136.668,84.4264 147.5,85.5C 150.305,86.3195 153.305,86.8195 156.5,87C 150.175,87.4995 143.842,87.6662 137.5,87.5C 112.122,87.9133 86.7882,87.9133 61.5,87.5C 60.0787,84.9906 58.4121,82.6572 56.5,80.5 Z"/></g>
<g><path style="opacity:1" fill="#d64b51" d="M 147.5,85.5 C 171.167,85.5 194.833,85.5 218.5,85.5C 237.432,87.6332 256.432,88.6332 275.5,88.5C 275.5,88.8333 275.5,89.1667 275.5,89.5C 253.833,89.5 232.167,89.5 210.5,89.5C 186.027,88.8617 161.693,88.1951 137.5,87.5C 143.842,87.6662 150.175,87.4995 156.5,87C 153.305,86.8195 150.305,86.3195 147.5,85.5 Z"/></g>
<g><path style="opacity:1" fill="#c83d3e" d="M 61.5,87.5 C 86.7882,87.9133 112.122,87.9133 137.5,87.5C 161.693,88.1951 186.027,88.8617 210.5,89.5C 215.167,90.1667 219.833,90.8333 224.5,91.5C 209.833,91.5 195.167,91.5 180.5,91.5C 169.5,91.5 158.5,91.5 147.5,91.5C 130.5,91.5 113.5,91.5 96.5,91.5C 86.1613,91.6665 75.828,91.4998 65.5,91C 63.9069,90.0513 62.5736,88.8846 61.5,87.5 Z"/></g>
<g><path style="opacity:1" fill="#b21c25" d="M 96.5,91.5 C 113.5,91.5 130.5,91.5 147.5,91.5C 142.36,92.4881 137.026,92.8214 131.5,92.5C 130.7,98.901 133.033,103.568 138.5,106.5C 131.445,108.93 124.112,110.764 116.5,112C 114.963,113.11 114.297,114.61 114.5,116.5C 113.167,116.5 111.833,116.5 110.5,116.5C 110.509,114.692 110.009,113.025 109,111.5C 103.994,106.038 101.16,99.7045 100.5,92.5C 98.901,92.7678 97.5676,92.4345 96.5,91.5 Z"/></g>
<g><path style="opacity:1" fill="#bf1e2a" d="M 147.5,91.5 C 158.5,91.5 169.5,91.5 180.5,91.5C 189.324,92.3297 198.324,92.8297 207.5,93C 208.737,93.2321 209.737,93.7321 210.5,94.5C 202.578,93.0494 195.745,95.0494 190,100.5C 187.657,103.863 185.323,107.197 183,110.5C 176.297,109.356 169.797,107.523 163.5,105C 155.098,104.362 146.765,104.862 138.5,106.5C 133.033,103.568 130.7,98.901 131.5,92.5C 137.026,92.8214 142.36,92.4881 147.5,91.5 Z"/></g>
<g><path style="opacity:1" fill="#cb2130" d="M 180.5,91.5 C 195.167,91.5 209.833,91.5 224.5,91.5C 229.167,91.5 233.833,91.5 238.5,91.5C 238.5,91.8333 238.5,92.1667 238.5,92.5C 236.167,92.5 233.833,92.5 231.5,92.5C 231.334,96.5138 231.501,100.514 232,104.5C 236.438,111.251 240.438,118.251 244,125.5C 246.186,136.287 247.52,147.287 248,158.5C 249.298,160.265 250.464,162.099 251.5,164C 249.997,165.921 249.331,168.088 249.5,170.5C 248.209,170.263 247.209,170.596 246.5,171.5C 244.88,172.841 243.88,174.674 243.5,177C 242.256,177.456 241.423,176.956 241,175.5C 239.402,178.298 238.235,181.298 237.5,184.5C 234.052,184.456 232.218,186.456 232,190.5C 231.184,191.823 230.017,192.489 228.5,192.5C 228.167,192.5 227.833,192.5 227.5,192.5C 227.665,189.482 227.498,186.482 227,183.5C 223.839,179.342 221.339,174.842 219.5,170C 220.089,167.367 221.756,166.2 224.5,166.5C 225.261,161.361 223.761,157.027 220,153.5C 219.667,149.5 219.333,145.5 219,141.5C 216.977,139.231 216.144,136.564 216.5,133.5C 218.282,129.834 221.115,127.168 225,125.5C 229.275,113.325 226.109,103.492 215.5,96C 213.846,95.3923 212.179,94.8923 210.5,94.5C 209.737,93.7321 208.737,93.2321 207.5,93C 198.324,92.8297 189.324,92.3297 180.5,91.5 Z"/></g>
<g><path style="opacity:1" fill="#d22735" d="M 238.5,92.5 C 250.833,92.5 263.167,92.5 275.5,92.5C 275.667,107.504 275.5,122.504 275,137.5C 274.667,136.833 274.333,136.167 274,135.5C 273.667,143.167 273.333,150.833 273,158.5C 271.667,156.5 270.333,154.5 269,152.5C 268.774,155.095 268.274,157.595 267.5,160C 268.872,161.242 269.872,162.742 270.5,164.5C 268.914,166.173 268.247,168.173 268.5,170.5C 267.194,170.879 265.861,171.212 264.5,171.5C 263.245,176.754 259.912,179.421 254.5,179.5C 255.575,183.938 253.908,185.938 249.5,185.5C 249.785,187.288 249.452,188.955 248.5,190.5C 247.833,184.012 247.167,177.679 246.5,171.5C 247.209,170.596 248.209,170.263 249.5,170.5C 249.331,168.088 249.997,165.921 251.5,164C 250.464,162.099 249.298,160.265 248,158.5C 247.52,147.287 246.186,136.287 244,125.5C 240.438,118.251 236.438,111.251 232,104.5C 231.501,100.514 231.334,96.5138 231.5,92.5C 233.833,92.5 236.167,92.5 238.5,92.5 Z"/></g>
<g><path style="opacity:1" fill="#d8333b" d="M 238.5,92.5 C 238.5,92.1667 238.5,91.8333 238.5,91.5C 260.842,91.4117 283.175,91.7451 305.5,92.5C 305.667,103.505 305.5,114.505 305,125.5C 304.085,124.672 303.419,123.672 303,122.5C 302.5,132.494 302.334,142.494 302.5,152.5C 300.833,152.5 299.167,152.5 297.5,152.5C 297.808,154.924 297.474,157.257 296.5,159.5C 294.423,160.988 293.423,162.988 293.5,165.5C 292.521,164.235 291.521,162.901 290.5,161.5C 290.167,161.667 289.833,161.833 289.5,162C 287.834,164.748 286.334,167.581 285,170.5C 283.088,171.692 281.088,172.692 279,173.5C 278.51,174.793 278.343,176.127 278.5,177.5C 276.09,177.921 274.257,179.254 273,181.5C 269.839,178.511 268.339,174.844 268.5,170.5C 268.247,168.173 268.914,166.173 270.5,164.5C 269.872,162.742 268.872,161.242 267.5,160C 268.274,157.595 268.774,155.095 269,152.5C 270.333,154.5 271.667,156.5 273,158.5C 273.333,150.833 273.667,143.167 274,135.5C 274.333,136.167 274.667,136.833 275,137.5C 275.5,122.504 275.667,107.504 275.5,92.5C 263.167,92.5 250.833,92.5 238.5,92.5 Z"/></g>
<g><path style="opacity:1" fill="#dc3f42" d="M 210.5,89.5 C 232.167,89.5 253.833,89.5 275.5,89.5C 291.848,90.2788 308.181,91.2788 324.5,92.5C 324.5,110.833 324.5,129.167 324.5,147.5C 322.173,147.665 320.007,148.331 318,149.5C 317.644,153.146 316.811,156.646 315.5,160C 313.527,160.495 311.527,160.662 309.5,160.5C 310.029,163.604 309.029,165.937 306.5,167.5C 306.251,171.249 304.251,173.083 300.5,173C 298.61,175.021 296.61,176.854 294.5,178.5C 292.029,181.563 289.029,183.896 285.5,185.5C 285.762,186.978 285.429,188.311 284.5,189.5C 283.513,186.232 283.18,182.898 283.5,179.5C 284.822,179.67 285.989,179.337 287,178.5C 287.29,176.048 287.956,173.715 289,171.5C 289.667,172.833 290.333,172.833 291,171.5C 291.04,168.409 291.873,166.409 293.5,165.5C 293.423,162.988 294.423,160.988 296.5,159.5C 297.474,157.257 297.808,154.924 297.5,152.5C 299.167,152.5 300.833,152.5 302.5,152.5C 302.334,142.494 302.5,132.494 303,122.5C 303.419,123.672 304.085,124.672 305,125.5C 305.5,114.505 305.667,103.505 305.5,92.5C 283.175,91.7451 260.842,91.4117 238.5,91.5C 233.833,91.5 229.167,91.5 224.5,91.5C 219.833,90.8333 215.167,90.1667 210.5,89.5 Z"/></g>
<g><path style="opacity:1" fill="#df4647" d="M 324.5,92.5 C 330.833,92.5 337.167,92.5 343.5,92.5C 342.211,108.358 341.211,125.025 340.5,142.5C 339.686,144.766 339.186,147.1 339,149.5C 334.24,152.449 331.74,156.782 331.5,162.5C 329.305,161.392 327.305,161.559 325.5,163C 322.641,164.691 321.308,167.191 321.5,170.5C 320.178,170.33 319.011,170.663 318,171.5C 317.457,173.631 316.624,175.631 315.5,177.5C 313.902,177.61 312.235,177.943 310.5,178.5C 309.526,180.743 309.192,183.076 309.5,185.5C 308.127,185.343 306.793,185.51 305.5,186C 303.499,188.324 301.499,189.824 299.5,190.5C 298.521,187.375 298.187,184.042 298.5,180.5C 296.62,180.771 295.287,180.104 294.5,178.5C 296.61,176.854 298.61,175.021 300.5,173C 304.251,173.083 306.251,171.249 306.5,167.5C 309.029,165.937 310.029,163.604 309.5,160.5C 311.527,160.662 313.527,160.495 315.5,160C 316.811,156.646 317.644,153.146 318,149.5C 320.007,148.331 322.173,147.665 324.5,147.5C 324.5,129.167 324.5,110.833 324.5,92.5 Z"/></g>
<g><path style="opacity:1" fill="#e96a68" d="M 283.5,84.5 C 293.167,85.8333 302.833,85.8333 312.5,84.5C 347.275,86.3982 381.942,89.0649 416.5,92.5C 415.369,106.912 413.536,121.246 411,135.5C 408.281,138.608 406.781,142.275 406.5,146.5C 404.666,148.977 403.333,151.643 402.5,154.5C 401.5,154.5 400.5,154.5 399.5,154.5C 394.397,165.04 389.563,175.707 385,186.5C 383.791,193.66 381.458,200.326 378,206.5C 376.602,207.051 375.268,207.384 374,207.5C 373.849,210.119 373.015,212.453 371.5,214.5C 371.957,215.298 372.624,215.631 373.5,215.5C 366.913,218.362 360.246,221.029 353.5,223.5C 346.204,225.276 338.871,225.609 331.5,224.5C 335.108,223.69 338.442,222.357 341.5,220.5C 341.281,219.325 341.614,218.325 342.5,217.5C 343.716,216.998 344.883,216.665 346,216.5C 346.739,214.779 347.573,213.113 348.5,211.5C 349.086,211.709 349.586,212.043 350,212.5C 352.434,209.341 353.767,205.674 354,201.5C 355.299,201.966 356.799,201.966 358.5,201.5C 358.5,199.167 358.5,196.833 358.5,194.5C 359.5,194.5 360.5,194.5 361.5,194.5C 363.976,189.13 365.642,183.464 366.5,177.5C 367.5,177.5 368.5,177.5 369.5,177.5C 370.69,172.522 372.024,167.522 373.5,162.5C 375.124,162.36 376.29,163.027 377,164.5C 379.509,160.806 381.342,156.806 382.5,152.5C 383.5,152.5 384.5,152.5 385.5,152.5C 386.639,149.996 387.306,147.33 387.5,144.5C 388.5,144.5 389.5,144.5 390.5,144.5C 391.939,127.247 393.606,109.914 395.5,92.5C 359.54,89.8617 323.54,87.695 287.5,86C 285.942,85.79 284.609,85.29 283.5,84.5 Z"/></g>
<g><path style="opacity:1" fill="#ef7d7d" d="M 309.5,81.5 C 313.167,81.5 316.833,81.5 320.5,81.5C 341.192,82.0562 361.859,83.0562 382.5,84.5C 382.5,85.5 382.5,86.5 382.5,87.5C 401.518,89.0592 420.518,90.7259 439.5,92.5C 439.607,98.8798 439.107,105.213 438,111.5C 435.875,112.484 434.708,114.15 434.5,116.5C 433.835,121.481 433.335,126.481 433,131.5C 432.311,132.357 431.478,133.023 430.5,133.5C 427.571,145.001 425.571,156.667 424.5,168.5C 423.5,168.5 422.5,168.5 421.5,168.5C 421.665,171.85 421.498,175.183 421,178.5C 419.701,179.09 418.868,180.09 418.5,181.5C 417.445,188.255 415.445,193.922 412.5,198.5C 409.409,199.977 406.409,201.644 403.5,203.5C 396.833,206.167 390.167,208.833 383.5,211.5C 384.08,208.848 385.58,206.181 388,203.5C 388.333,201.833 388.667,200.167 389,198.5C 390.011,197.663 391.178,197.33 392.5,197.5C 394.133,190.831 396.467,184.331 399.5,178C 400.159,175.538 400.493,173.038 400.5,170.5C 401.5,170.5 402.5,170.5 403.5,170.5C 403.575,167.794 403.908,165.127 404.5,162.5C 406.143,162.52 407.476,161.853 408.5,160.5C 412.725,149.045 416.059,137.378 418.5,125.5C 418.86,123.579 419.694,121.912 421,120.5C 421.333,113.167 421.667,105.833 422,98.5C 424.016,97.0448 424.849,95.0448 424.5,92.5C 421.833,92.5 419.167,92.5 416.5,92.5C 381.942,89.0649 347.275,86.3982 312.5,84.5C 313.952,83.6981 315.618,83.1981 317.5,83C 314.635,82.8171 311.969,82.3171 309.5,81.5 Z"/></g>
<g><path style="opacity:1" fill="#f18889" d="M 320.5,81.5 C 320.5,81.1667 320.5,80.8333 320.5,80.5C 343.184,80.2589 365.851,80.7589 388.5,82C 403.399,85.4745 418.399,88.4745 433.5,91C 439.135,91.904 444.802,92.404 450.5,92.5C 450.491,90.6916 450.991,89.0249 452,87.5C 453.362,84.7644 455.196,82.4311 457.5,80.5C 458.664,86.8072 458.831,93.1405 458,99.5C 456.774,105.852 455.94,112.352 455.5,119C 455.045,120.724 454.212,122.224 453,123.5C 452.667,122.833 452.333,122.167 452,121.5C 451.755,123.663 450.755,125.33 449,126.5C 448.338,128.813 447.838,131.146 447.5,133.5C 430.341,148.481 427.008,166.148 437.5,186.5C 429.167,190.5 420.833,194.5 412.5,198.5C 415.445,193.922 417.445,188.255 418.5,181.5C 418.868,180.09 419.701,179.09 421,178.5C 421.498,175.183 421.665,171.85 421.5,168.5C 422.5,168.5 423.5,168.5 424.5,168.5C 425.571,156.667 427.571,145.001 430.5,133.5C 431.478,133.023 432.311,132.357 433,131.5C 433.335,126.481 433.835,121.481 434.5,116.5C 434.708,114.15 435.875,112.484 438,111.5C 439.107,105.213 439.607,98.8798 439.5,92.5C 420.518,90.7259 401.518,89.0592 382.5,87.5C 382.5,86.5 382.5,85.5 382.5,84.5C 361.859,83.0562 341.192,82.0562 320.5,81.5 Z"/></g>
<g><path style="opacity:1" fill="#fefdfd" d="M 210.5,94.5 C 212.179,94.8923 213.846,95.3923 215.5,96C 226.109,103.492 229.275,113.325 225,125.5C 221.115,127.168 218.282,129.834 216.5,133.5C 215.067,134.833 213.733,136.333 212.5,138C 207.192,138.657 202.359,140.49 198,143.5C 196.127,142.132 194.46,140.466 193,138.5C 187.758,153.125 183.592,168.125 180.5,183.5C 193.615,184.463 206.615,186.297 219.5,189C 221.372,191.944 224.039,193.111 227.5,192.5C 227.833,192.5 228.167,192.5 228.5,192.5C 236.575,194.359 244.575,196.859 252.5,200C 261.962,200.767 271.295,202.267 280.5,204.5C 285.848,207.4 291.515,209.733 297.5,211.5C 301.203,213.679 305.203,215.345 309.5,216.5C 316.359,220.254 323.693,222.92 331.5,224.5C 338.871,225.609 346.204,225.276 353.5,223.5C 359.813,222.478 366.147,221.978 372.5,222C 373.574,222.739 374.241,223.739 374.5,225C 373.311,226.895 372.311,228.895 371.5,231C 365.81,233.928 360.477,237.428 355.5,241.5C 352.181,242.819 349.848,245.152 348.5,248.5C 347.264,249.246 345.93,249.579 344.5,249.5C 344.64,251.124 343.973,252.29 342.5,253C 339.5,253.667 336.5,253.667 333.5,253C 331.447,249.717 329.28,246.55 327,243.5C 317.064,240.404 306.898,238.737 296.5,238.5C 287.168,237.759 277.835,236.592 268.5,235C 263.651,232.41 258.651,230.076 253.5,228C 243.325,227.652 233.158,227.152 223,226.5C 208.223,228.269 193.389,228.936 178.5,228.5C 179.001,235.177 179.668,241.843 180.5,248.5C 180.149,251.089 179.482,253.589 178.5,256C 178.528,257.07 178.861,257.903 179.5,258.5C 181.322,267.767 182.822,277.1 184,286.5C 184.588,291.528 184.422,296.528 183.5,301.5C 181.639,304.022 179.639,306.522 177.5,309C 172.915,311.678 168.248,313.845 163.5,315.5C 147.198,316.955 130.865,317.955 114.5,318.5C 97.4095,317.578 84.0762,324.244 74.5,338.5C 71.994,341.086 69.494,341.086 67,338.5C 66.6393,335.475 66.1393,332.475 65.5,329.5C 65.9424,328.261 66.6091,327.261 67.5,326.5C 68.3552,324.213 68.5218,321.88 68,319.5C 75.8244,313.333 80.9911,305.5 83.5,296C 90.2352,293.028 95.5686,294.695 99.5,301C 100.448,301.483 101.448,301.649 102.5,301.5C 111.321,300.548 119.654,298.214 127.5,294.5C 136.501,290.666 145.835,287.999 155.5,286.5C 150.881,276.906 145.548,267.906 139.5,259.5C 135.28,248.168 131.28,236.835 127.5,225.5C 127.5,220.833 127.5,216.167 127.5,211.5C 127.798,208.735 128.798,206.235 130.5,204C 129.069,203.535 127.903,202.701 127,201.5C 126.167,185.662 127.5,169.995 131,154.5C 131.899,149.236 133.565,144.236 136,139.5C 139.453,137.524 142.953,135.691 146.5,134C 136.523,134.583 126.523,135.416 116.5,136.5C 109.542,143.959 102.375,151.292 95,158.5C 93.6431,162.304 92.1431,165.97 90.5,169.5C 86.5935,174.787 81.2602,177.453 74.5,177.5C 73.8333,176.5 73.1667,175.5 72.5,174.5C 74.4773,172.186 76.4773,169.853 78.5,167.5C 78.3333,167.167 78.1667,166.833 78,166.5C 76.6487,168.01 74.982,169.01 73,169.5C 71.0543,169.237 70.3877,168.237 71,166.5C 76.328,162.825 80.4947,158.158 83.5,152.5C 85.0898,152.372 86.4231,151.705 87.5,150.5C 93.3333,140.833 99.1667,131.167 105,121.5C 106.379,119.285 108.213,117.619 110.5,116.5C 111.833,116.5 113.167,116.5 114.5,116.5C 114.297,114.61 114.963,113.11 116.5,112C 124.112,110.764 131.445,108.93 138.5,106.5C 146.765,104.862 155.098,104.362 163.5,105C 169.797,107.523 176.297,109.356 183,110.5C 185.323,107.197 187.657,103.863 190,100.5C 195.745,95.0494 202.578,93.0494 210.5,94.5 Z"/></g>
<g><path style="opacity:1" fill="#991c21" d="M 40.5,101.5 C 41.8036,102.987 42.9702,104.654 44,106.5C 44.3333,109.833 44.6667,113.167 45,116.5C 48.6667,122.167 52.3333,127.833 56,133.5C 56.3333,136.833 56.6667,140.167 57,143.5C 59.9175,147.666 62.5841,151.999 65,156.5C 65.3333,159.5 65.6667,162.5 66,165.5C 66.3333,163.5 66.6667,161.5 67,159.5C 67.3333,159.833 67.6667,160.167 68,160.5C 68.3333,163.5 68.6667,166.5 69,169.5C 69.6972,171.584 70.8639,173.251 72.5,174.5C 73.1667,175.5 73.8333,176.5 74.5,177.5C 73.3775,179.288 73.2109,181.288 74,183.5C 78.956,189.737 81.956,196.737 83,204.5C 86.1779,206.903 86.0113,208.736 82.5,210C 85.5789,214.079 88.2456,218.412 90.5,223C 88.8936,227.247 87.227,231.413 85.5,235.5C 83.9098,233.576 82.0765,233.243 80,234.5C 79.6667,233.833 79.3333,233.167 79,232.5C 76.8774,235.113 74.5441,237.446 72,239.5C 68.3507,236.623 67.8507,233.456 70.5,230C 68.8717,226.397 68.0384,222.563 68,218.5C 67.6667,217.833 67.3333,217.167 67,216.5C 66.6667,218.833 66.3333,221.167 66,223.5C 66.5378,217.394 64.8711,212.061 61,207.5C 60.6667,204.833 60.3333,202.167 60,199.5C 56.9148,194.328 53.5814,189.328 50,184.5C 49.2237,176.617 46.057,169.95 40.5,164.5C 40.5,143.5 40.5,122.5 40.5,101.5 Z"/></g>
<g><path style="opacity:1" fill="#e35959" d="M 373.5,92.5 C 377.5,92.5 381.5,92.5 385.5,92.5C 383.235,105.627 381.902,118.96 381.5,132.5C 379.438,140.973 376.771,148.973 373.5,156.5C 371.263,157.449 368.929,158.116 366.5,158.5C 365.333,164.17 362.833,169.17 359,173.5C 357.997,177.724 356.497,181.724 354.5,185.5C 353.264,186.246 351.93,186.579 350.5,186.5C 350.657,187.873 350.49,189.207 350,190.5C 347.715,192.99 345.215,195.324 342.5,197.5C 340.967,199.289 339.967,201.289 339.5,203.5C 337.533,203.261 335.699,203.594 334,204.5C 332.602,209.382 330.269,213.716 327,217.5C 326.333,216.167 325.667,216.167 325,217.5C 324.667,218.5 324.333,219.5 324,220.5C 323.793,216.911 323.293,213.411 322.5,210C 326.45,210.218 328.116,208.384 327.5,204.5C 327.301,199.646 325.801,199.313 323,203.5C 322.517,204.448 322.351,205.448 322.5,206.5C 320.61,206.703 319.11,206.037 318,204.5C 317.529,206.246 316.862,207.913 316,209.5C 315,209.833 314,210.167 313,210.5C 311.869,212.605 310.703,214.605 309.5,216.5C 305.203,215.345 301.203,213.679 297.5,211.5C 299.663,209.562 301.663,207.396 303.5,205C 305.24,203.306 307.24,202.139 309.5,201.5C 309.5,200.5 309.5,199.5 309.5,198.5C 310.5,198.5 311.5,198.5 312.5,198.5C 312.351,197.448 312.517,196.448 313,195.5C 314.011,196.337 315.178,196.67 316.5,196.5C 316.491,194.692 316.991,193.025 318,191.5C 321.019,188.845 324.185,186.512 327.5,184.5C 327.967,182.289 328.967,180.289 330.5,178.5C 331.137,182.571 331.971,186.571 333,190.5C 334.188,189.437 334.688,188.103 334.5,186.5C 335.978,186.762 337.311,186.429 338.5,185.5C 340.056,182.624 341.722,179.958 343.5,177.5C 344.5,177.5 345.5,177.5 346.5,177.5C 346.343,176.127 346.51,174.793 347,173.5C 349.108,171.618 350.441,169.285 351,166.5C 353.174,165.304 355.674,163.971 358.5,162.5C 357.858,158.138 359.358,154.805 363,152.5C 364.925,149.417 366.092,146.083 366.5,142.5C 367.833,142.5 369.167,142.5 370.5,142.5C 370.965,125.792 371.965,109.125 373.5,92.5 Z"/></g>
<g><path style="opacity:1" fill="#eb7372" d="M 416.5,92.5 C 419.167,92.5 421.833,92.5 424.5,92.5C 424.849,95.0448 424.016,97.0448 422,98.5C 421.667,105.833 421.333,113.167 421,120.5C 419.694,121.912 418.86,123.579 418.5,125.5C 416.059,137.378 412.725,149.045 408.5,160.5C 407.476,161.853 406.143,162.52 404.5,162.5C 403.908,165.127 403.575,167.794 403.5,170.5C 402.5,170.5 401.5,170.5 400.5,170.5C 400.493,173.038 400.159,175.538 399.5,178C 396.467,184.331 394.133,190.831 392.5,197.5C 391.178,197.33 390.011,197.663 389,198.5C 388.667,200.167 388.333,201.833 388,203.5C 385.58,206.181 384.08,208.848 383.5,211.5C 380.46,213.346 377.127,214.679 373.5,215.5C 372.624,215.631 371.957,215.298 371.5,214.5C 373.015,212.453 373.849,210.119 374,207.5C 375.268,207.384 376.602,207.051 378,206.5C 381.458,200.326 383.791,193.66 385,186.5C 389.563,175.707 394.397,165.04 399.5,154.5C 400.5,154.5 401.5,154.5 402.5,154.5C 403.333,151.643 404.666,148.977 406.5,146.5C 406.781,142.275 408.281,138.608 411,135.5C 413.536,121.246 415.369,106.912 416.5,92.5 Z"/></g>
<g><path style="opacity:1" fill="#c4222e" d="M 216.5,133.5 C 216.144,136.564 216.977,139.231 219,141.5C 219.333,145.5 219.667,149.5 220,153.5C 223.761,157.027 225.261,161.361 224.5,166.5C 221.756,166.2 220.089,167.367 219.5,170C 221.339,174.842 223.839,179.342 227,183.5C 227.498,186.482 227.665,189.482 227.5,192.5C 224.039,193.111 221.372,191.944 219.5,189C 206.615,186.297 193.615,184.463 180.5,183.5C 183.592,168.125 187.758,153.125 193,138.5C 194.46,140.466 196.127,142.132 198,143.5C 202.359,140.49 207.192,138.657 212.5,138C 213.733,136.333 215.067,134.833 216.5,133.5 Z"/></g>
<g><path style="opacity:1" fill="#e04e50" d="M 275.5,89.5 C 275.5,89.1667 275.5,88.8333 275.5,88.5C 308.117,90.4906 340.784,91.824 373.5,92.5C 371.965,109.125 370.965,125.792 370.5,142.5C 369.167,142.5 367.833,142.5 366.5,142.5C 366.092,146.083 364.925,149.417 363,152.5C 359.358,154.805 357.858,158.138 358.5,162.5C 355.674,163.971 353.174,165.304 351,166.5C 350.441,169.285 349.108,171.618 347,173.5C 346.51,174.793 346.343,176.127 346.5,177.5C 345.5,177.5 344.5,177.5 343.5,177.5C 341.722,179.958 340.056,182.624 338.5,185.5C 337.311,186.429 335.978,186.762 334.5,186.5C 334.688,188.103 334.188,189.437 333,190.5C 331.971,186.571 331.137,182.571 330.5,178.5C 328.967,180.289 327.967,182.289 327.5,184.5C 324.185,186.512 321.019,188.845 318,191.5C 316.991,193.025 316.491,194.692 316.5,196.5C 315.178,196.67 314.011,196.337 313,195.5C 312.517,196.448 312.351,197.448 312.5,198.5C 311.5,198.5 310.5,198.5 309.5,198.5C 309.5,199.5 309.5,200.5 309.5,201.5C 307.24,202.139 305.24,203.306 303.5,205C 301.663,207.396 299.663,209.562 297.5,211.5C 291.515,209.733 285.848,207.4 280.5,204.5C 282.167,204.5 283.833,204.5 285.5,204.5C 286.413,202.165 287.747,199.999 289.5,198C 290.793,197.51 292.127,197.343 293.5,197.5C 293.5,196.5 293.5,195.5 293.5,194.5C 296.856,195.138 298.856,193.804 299.5,190.5C 301.499,189.824 303.499,188.324 305.5,186C 306.793,185.51 308.127,185.343 309.5,185.5C 309.192,183.076 309.526,180.743 310.5,178.5C 312.235,177.943 313.902,177.61 315.5,177.5C 316.624,175.631 317.457,173.631 318,171.5C 319.011,170.663 320.178,170.33 321.5,170.5C 321.308,167.191 322.641,164.691 325.5,163C 327.305,161.559 329.305,161.392 331.5,162.5C 331.74,156.782 334.24,152.449 339,149.5C 339.186,147.1 339.686,144.766 340.5,142.5C 341.211,125.025 342.211,108.358 343.5,92.5C 337.167,92.5 330.833,92.5 324.5,92.5C 308.181,91.2788 291.848,90.2788 275.5,89.5 Z"/></g>
<g><path style="opacity:1" fill="#e9eaec" d="M 465.5,142.5 C 473.372,140.23 480.372,141.897 486.5,147.5C 486.062,147.435 485.728,147.601 485.5,148C 486.883,149.271 487.883,150.771 488.5,152.5C 488.209,153.649 487.376,154.316 486,154.5C 483.461,153.398 480.961,153.398 478.5,154.5C 475.481,161.006 470.481,163.172 463.5,161C 462.941,160.275 462.608,159.442 462.5,158.5C 463.99,154.864 465.323,151.197 466.5,147.5C 463.282,147.349 462.949,146.516 465.5,145C 465.272,144.601 464.938,144.435 464.5,144.5C 465.263,143.732 466.263,143.232 467.5,143C 466.906,142.536 466.239,142.369 465.5,142.5 Z"/></g>
<g><path style="opacity:1" fill="#a81d25" d="M 127.5,211.5 C 126.807,215.565 126.14,219.732 125.5,224C 120.722,224.227 116.222,225.394 112,227.5C 110.75,226.427 109.416,226.427 108,227.5C 105.618,226.256 103.785,224.423 102.5,222C 106.392,221.869 107.225,220.369 105,217.5C 104.667,211.167 104.333,204.833 104,198.5C 98.5613,192.954 95.8947,186.287 96,178.5C 93.6535,175.806 91.8202,172.806 90.5,169.5C 92.1431,165.97 93.6431,162.304 95,158.5C 102.375,151.292 109.542,143.959 116.5,136.5C 126.523,135.416 136.523,134.583 146.5,134C 142.953,135.691 139.453,137.524 136,139.5C 133.565,144.236 131.899,149.236 131,154.5C 127.5,169.995 126.167,185.662 127,201.5C 127.903,202.701 129.069,203.535 130.5,204C 128.798,206.235 127.798,208.735 127.5,211.5 Z"/></g>
<g><path style="opacity:1" fill="#c2c5ca" d="M 464.5,144.5 C 464.938,144.435 465.272,144.601 465.5,145C 462.949,146.516 463.282,147.349 466.5,147.5C 465.323,151.197 463.99,154.864 462.5,158.5C 462.608,159.442 462.941,160.275 463.5,161C 470.481,163.172 475.481,161.006 478.5,154.5C 480.961,153.398 483.461,153.398 486,154.5C 487.376,154.316 488.209,153.649 488.5,152.5C 489.167,152.5 489.5,152.833 489.5,153.5C 489.552,155.903 489.219,158.236 488.5,160.5C 486.248,159.667 484.081,159.667 482,160.5C 481.085,159.672 480.419,158.672 480,157.5C 475.838,164.318 470.005,166.151 462.5,163C 460.649,161.316 458.982,159.483 457.5,157.5C 458.325,156.614 459.325,156.281 460.5,156.5C 460.84,153.856 460.173,151.523 458.5,149.5C 459.614,146.715 461.614,145.048 464.5,144.5 Z"/></g>
<g><path style="opacity:1" fill="#e4605f" d="M 283.5,84.5 C 284.609,85.29 285.942,85.79 287.5,86C 323.54,87.695 359.54,89.8617 395.5,92.5C 393.606,109.914 391.939,127.247 390.5,144.5C 389.5,144.5 388.5,144.5 387.5,144.5C 387.306,147.33 386.639,149.996 385.5,152.5C 384.5,152.5 383.5,152.5 382.5,152.5C 381.342,156.806 379.509,160.806 377,164.5C 376.29,163.027 375.124,162.36 373.5,162.5C 372.024,167.522 370.69,172.522 369.5,177.5C 368.5,177.5 367.5,177.5 366.5,177.5C 365.642,183.464 363.976,189.13 361.5,194.5C 360.5,194.5 359.5,194.5 358.5,194.5C 358.5,196.833 358.5,199.167 358.5,201.5C 356.799,201.966 355.299,201.966 354,201.5C 353.767,205.674 352.434,209.341 350,212.5C 349.586,212.043 349.086,211.709 348.5,211.5C 347.573,213.113 346.739,214.779 346,216.5C 344.883,216.665 343.716,216.998 342.5,217.5C 341.614,218.325 341.281,219.325 341.5,220.5C 338.442,222.357 335.108,223.69 331.5,224.5C 323.693,222.92 316.359,220.254 309.5,216.5C 310.703,214.605 311.869,212.605 313,210.5C 314,210.167 315,209.833 316,209.5C 316.862,207.913 317.529,206.246 318,204.5C 319.11,206.037 320.61,206.703 322.5,206.5C 322.351,205.448 322.517,204.448 323,203.5C 325.801,199.313 327.301,199.646 327.5,204.5C 328.116,208.384 326.45,210.218 322.5,210C 323.293,213.411 323.793,216.911 324,220.5C 324.333,219.5 324.667,218.5 325,217.5C 325.667,216.167 326.333,216.167 327,217.5C 330.269,213.716 332.602,209.382 334,204.5C 335.699,203.594 337.533,203.261 339.5,203.5C 339.967,201.289 340.967,199.289 342.5,197.5C 345.215,195.324 347.715,192.99 350,190.5C 350.49,189.207 350.657,187.873 350.5,186.5C 351.93,186.579 353.264,186.246 354.5,185.5C 356.497,181.724 357.997,177.724 359,173.5C 362.833,169.17 365.333,164.17 366.5,158.5C 368.929,158.116 371.263,157.449 373.5,156.5C 376.771,148.973 379.438,140.973 381.5,132.5C 381.902,118.96 383.235,105.627 385.5,92.5C 381.5,92.5 377.5,92.5 373.5,92.5C 340.784,91.824 308.117,90.4906 275.5,88.5C 256.432,88.6332 237.432,87.6332 218.5,85.5C 240.005,83.8605 261.672,83.5272 283.5,84.5 Z"/></g>
<g><path style="opacity:1" fill="#75787f" d="M 454.5,148.5 C 454.938,148.435 455.272,148.601 455.5,149C 453.614,152.967 453.114,157.134 454,161.5C 456.862,164.78 459.362,168.28 461.5,172C 467.295,174.317 473.295,174.984 479.5,174C 480.916,171.735 482.916,170.569 485.5,170.5C 480.201,177.801 473.201,179.968 464.5,177C 460.361,174.194 456.861,170.694 454,166.5C 452.153,162.272 450.986,157.939 450.5,153.5C 451.864,151.809 453.197,150.142 454.5,148.5 Z"/></g>
<g><path style="opacity:1" fill="#a8a9af" d="M 465.5,142.5 C 466.239,142.369 466.906,142.536 467.5,143C 466.263,143.232 465.263,143.732 464.5,144.5C 461.614,145.048 459.614,146.715 458.5,149.5C 460.173,151.523 460.84,153.856 460.5,156.5C 459.325,156.281 458.325,156.614 457.5,157.5C 458.982,159.483 460.649,161.316 462.5,163C 470.005,166.151 475.838,164.318 480,157.5C 480.419,158.672 481.085,159.672 482,160.5C 484.081,159.667 486.248,159.667 488.5,160.5C 486.598,165.267 484.098,165.6 481,161.5C 476.116,167.22 469.95,169.053 462.5,167C 454.49,160.886 453.49,153.886 459.5,146C 459.272,145.601 458.938,145.435 458.5,145.5C 460.426,143.707 462.759,142.707 465.5,142.5 Z"/></g>
<g><path style="opacity:1" fill="#911d21" d="M 40.5,164.5 C 46.057,169.95 49.2237,176.617 50,184.5C 53.5814,189.328 56.9148,194.328 60,199.5C 60.3333,202.167 60.6667,204.833 61,207.5C 64.8711,212.061 66.5378,217.394 66,223.5C 66.3333,221.167 66.6667,218.833 67,216.5C 67.3333,217.167 67.6667,217.833 68,218.5C 68.0384,222.563 68.8717,226.397 70.5,230C 67.8507,233.456 68.3507,236.623 72,239.5C 74.5441,237.446 76.8774,235.113 79,232.5C 79.3333,233.167 79.6667,233.833 80,234.5C 82.0765,233.243 83.9098,233.576 85.5,235.5C 87.144,234.634 88.8107,234.134 90.5,234C 89.4258,234.739 88.7591,235.739 88.5,237C 89.5792,239.155 90.9126,241.155 92.5,243C 91.7069,244.085 91.0402,245.252 90.5,246.5C 91.934,248.22 92.7674,250.22 93,252.5C 93.2492,251.376 93.7492,250.376 94.5,249.5C 97.9231,246.736 101.59,244.402 105.5,242.5C 106.416,242.543 107.083,242.876 107.5,243.5C 106.791,244.404 105.791,244.737 104.5,244.5C 105.528,249.474 105.528,254.307 104.5,259C 116.162,259.5 127.829,259.667 139.5,259.5C 145.548,267.906 150.881,276.906 155.5,286.5C 145.835,287.999 136.501,290.666 127.5,294.5C 125.983,294.489 124.816,293.823 124,292.5C 117.54,281.744 110.707,271.244 103.5,261C 94.8513,261.145 86.1846,261.312 77.5,261.5C 65.1667,261.5 52.8333,261.5 40.5,261.5C 40.5,229.167 40.5,196.833 40.5,164.5 Z"/></g>
<g><path style="opacity:1" fill="#8c8f96" d="M 458.5,145.5 C 458.938,145.435 459.272,145.601 459.5,146C 453.49,153.886 454.49,160.886 462.5,167C 469.95,169.053 476.116,167.22 481,161.5C 484.098,165.6 486.598,165.267 488.5,160.5C 489.219,158.236 489.552,155.903 489.5,153.5C 491.728,157.242 492.062,161.242 490.5,165.5C 489.194,167.473 487.527,169.139 485.5,170.5C 482.916,170.569 480.916,171.735 479.5,174C 473.295,174.984 467.295,174.317 461.5,172C 459.362,168.28 456.862,164.78 454,161.5C 453.114,157.134 453.614,152.967 455.5,149C 455.272,148.601 454.938,148.435 454.5,148.5C 455.795,147.512 457.128,146.512 458.5,145.5 Z"/></g>
<g><path style="opacity:1" fill="#a01e25" d="M 90.5,169.5 C 91.8202,172.806 93.6535,175.806 96,178.5C 95.8947,186.287 98.5613,192.954 104,198.5C 104.333,204.833 104.667,211.167 105,217.5C 107.225,220.369 106.392,221.869 102.5,222C 103.785,224.423 105.618,226.256 108,227.5C 109.416,226.427 110.75,226.427 112,227.5C 116.222,225.394 120.722,224.227 125.5,224C 126.14,219.732 126.807,215.565 127.5,211.5C 127.5,216.167 127.5,220.833 127.5,225.5C 126.878,227.335 125.544,228.502 123.5,229C 124.167,230 124.833,231 125.5,232C 121.393,232.875 120.727,234.709 123.5,237.5C 123.291,238.086 122.957,238.586 122.5,239C 117.416,239.626 112.416,241.126 107.5,243.5C 107.083,242.876 106.416,242.543 105.5,242.5C 101.59,244.402 97.9231,246.736 94.5,249.5C 93.7492,250.376 93.2492,251.376 93,252.5C 92.7674,250.22 91.934,248.22 90.5,246.5C 91.0402,245.252 91.7069,244.085 92.5,243C 90.9126,241.155 89.5792,239.155 88.5,237C 88.7591,235.739 89.4258,234.739 90.5,234C 88.8107,234.134 87.144,234.634 85.5,235.5C 87.227,231.413 88.8936,227.247 90.5,223C 88.2456,218.412 85.5789,214.079 82.5,210C 86.0113,208.736 86.1779,206.903 83,204.5C 81.956,196.737 78.956,189.737 74,183.5C 73.2109,181.288 73.3775,179.288 74.5,177.5C 81.2602,177.453 86.5935,174.787 90.5,169.5 Z"/></g>
<g><path style="opacity:1" fill="#d2323d" d="M 293.5,165.5 C 291.873,166.409 291.04,168.409 291,171.5C 290.333,172.833 289.667,172.833 289,171.5C 287.956,173.715 287.29,176.048 287,178.5C 285.989,179.337 284.822,179.67 283.5,179.5C 283.18,182.898 283.513,186.232 284.5,189.5C 285.429,188.311 285.762,186.978 285.5,185.5C 289.029,183.896 292.029,181.563 294.5,178.5C 295.287,180.104 296.62,180.771 298.5,180.5C 298.187,184.042 298.521,187.375 299.5,190.5C 298.856,193.804 296.856,195.138 293.5,194.5C 293.5,195.5 293.5,196.5 293.5,197.5C 292.127,197.343 290.793,197.51 289.5,198C 287.747,199.999 286.413,202.165 285.5,204.5C 283.833,204.5 282.167,204.5 280.5,204.5C 271.295,202.267 261.962,200.767 252.5,200C 244.575,196.859 236.575,194.359 228.5,192.5C 230.017,192.489 231.184,191.823 232,190.5C 232.218,186.456 234.052,184.456 237.5,184.5C 238.235,181.298 239.402,178.298 241,175.5C 241.423,176.956 242.256,177.456 243.5,177C 243.88,174.674 244.88,172.841 246.5,171.5C 247.167,177.679 247.833,184.012 248.5,190.5C 249.452,188.955 249.785,187.288 249.5,185.5C 253.908,185.938 255.575,183.938 254.5,179.5C 259.912,179.421 263.245,176.754 264.5,171.5C 265.861,171.212 267.194,170.879 268.5,170.5C 268.339,174.844 269.839,178.511 273,181.5C 274.257,179.254 276.09,177.921 278.5,177.5C 278.343,176.127 278.51,174.793 279,173.5C 281.088,172.692 283.088,171.692 285,170.5C 286.334,167.581 287.834,164.748 289.5,162C 289.833,161.833 290.167,161.667 290.5,161.5C 291.521,162.901 292.521,164.235 293.5,165.5 Z"/></g>
<g><path style="opacity:1" fill="#595d63" d="M 450.5,153.5 C 450.986,157.939 452.153,162.272 454,166.5C 456.861,170.694 460.361,174.194 464.5,177C 473.201,179.968 480.201,177.801 485.5,170.5C 487.527,169.139 489.194,167.473 490.5,165.5C 488.115,172.387 483.449,177.221 476.5,180C 467.759,181.586 460.092,179.419 453.5,173.5C 453.816,177.718 456.149,180.884 460.5,183C 465.277,184.98 470.277,185.98 475.5,186C 474.288,187.107 474.621,187.607 476.5,187.5C 459.059,190.09 449.393,182.423 447.5,164.5C 447.492,160.528 448.492,156.861 450.5,153.5 Z"/></g>
<g><path style="opacity:1" fill="#383b3f" d="M 486.5,147.5 C 494.951,155.741 496.785,165.408 492,176.5C 488.585,182.764 483.419,186.43 476.5,187.5C 474.621,187.607 474.288,187.107 475.5,186C 470.277,185.98 465.277,184.98 460.5,183C 456.149,180.884 453.816,177.718 453.5,173.5C 460.092,179.419 467.759,181.586 476.5,180C 483.449,177.221 488.115,172.387 490.5,165.5C 492.062,161.242 491.728,157.242 489.5,153.5C 489.5,152.833 489.167,152.5 488.5,152.5C 487.883,150.771 486.883,149.271 485.5,148C 485.728,147.601 486.062,147.435 486.5,147.5 Z"/></g>
<g><path style="opacity:1" fill="#bc0c18" d="M 437.5,186.5 C 444.445,196.81 454.112,202.81 466.5,204.5C 467.568,205.434 468.901,205.768 470.5,205.5C 470.5,239.5 470.5,273.5 470.5,307.5C 447.386,273.376 425.053,238.709 403.5,203.5C 406.409,201.644 409.409,199.977 412.5,198.5C 420.833,194.5 429.167,190.5 437.5,186.5 Z"/></g>
<g><path style="opacity:1" fill="#d9757d" d="M 466.5,204.5 C 468.167,204.5 469.833,204.5 471.5,204.5C 471.832,251.67 471.499,298.67 470.5,345.5C 470.5,345.167 470.5,344.833 470.5,344.5C 470.5,343.5 470.5,342.5 470.5,341.5C 470.5,341.167 470.5,340.833 470.5,340.5C 470.5,339.833 470.5,339.167 470.5,338.5C 470.5,328.167 470.5,317.833 470.5,307.5C 470.5,273.5 470.5,239.5 470.5,205.5C 468.901,205.768 467.568,205.434 466.5,204.5 Z"/></g>
<g><path style="opacity:1" fill="#b80e18" d="M 403.5,203.5 C 425.053,238.709 447.386,273.376 470.5,307.5C 470.5,317.833 470.5,328.167 470.5,338.5C 452.488,338.833 434.488,338.5 416.5,337.5C 396.667,307.167 376.833,276.833 357,246.5C 355.991,244.975 355.491,243.308 355.5,241.5C 360.477,237.428 365.81,233.928 371.5,231C 372.311,228.895 373.311,226.895 374.5,225C 374.241,223.739 373.574,222.739 372.5,222C 366.147,221.978 359.813,222.478 353.5,223.5C 360.246,221.029 366.913,218.362 373.5,215.5C 377.127,214.679 380.46,213.346 383.5,211.5C 390.167,208.833 396.833,206.167 403.5,203.5 Z"/></g>
<g><path style="opacity:1" fill="#c9404a" d="M 296.5,238.5 C 295.432,239.434 294.099,239.768 292.5,239.5C 284.288,241.702 275.955,243.369 267.5,244.5C 251.902,247.219 236.236,249.552 220.5,251.5C 209.38,252.939 198.38,254.273 187.5,255.5C 184.833,255.5 182.167,255.5 179.5,255.5C 179.5,256.5 179.5,257.5 179.5,258.5C 178.861,257.903 178.528,257.07 178.5,256C 179.482,253.589 180.149,251.089 180.5,248.5C 179.668,241.843 179.001,235.177 178.5,228.5C 193.389,228.936 208.223,228.269 223,226.5C 233.158,227.152 243.325,227.652 253.5,228C 258.651,230.076 263.651,232.41 268.5,235C 277.835,236.592 287.168,237.759 296.5,238.5 Z"/></g>
<g><path style="opacity:1" fill="#b21019" d="M 296.5,238.5 C 306.898,238.737 317.064,240.404 327,243.5C 329.28,246.55 331.447,249.717 333.5,253C 336.5,253.667 339.5,253.667 342.5,253C 343.973,252.29 344.64,251.124 344.5,249.5C 345.93,249.579 347.264,249.246 348.5,248.5C 349.848,245.152 352.181,242.819 355.5,241.5C 355.491,243.308 355.991,244.975 357,246.5C 376.833,276.833 396.667,307.167 416.5,337.5C 434.488,338.5 452.488,338.833 470.5,338.5C 470.5,339.167 470.5,339.833 470.5,340.5C 432.169,339.679 393.836,338.845 355.5,338C 333.855,305.534 312.855,272.7 292.5,239.5C 294.099,239.768 295.432,239.434 296.5,238.5 Z"/></g>
<g><path style="opacity:1" fill="#a82b33" d="M 127.5,225.5 C 131.28,236.835 135.28,248.168 139.5,259.5C 127.829,259.667 116.162,259.5 104.5,259C 105.528,254.307 105.528,249.474 104.5,244.5C 105.791,244.737 106.791,244.404 107.5,243.5C 112.416,241.126 117.416,239.626 122.5,239C 122.957,238.586 123.291,238.086 123.5,237.5C 120.727,234.709 121.393,232.875 125.5,232C 124.833,231 124.167,230 123.5,229C 125.544,228.502 126.878,227.335 127.5,225.5 Z"/></g>
<g><path style="opacity:1" fill="#ac111a" d="M 292.5,239.5 C 312.855,272.7 333.855,305.534 355.5,338C 393.836,338.845 432.169,339.679 470.5,340.5C 470.5,340.833 470.5,341.167 470.5,341.5C 422.818,340.95 375.151,339.783 327.5,338C 306.856,307.201 286.856,276.034 267.5,244.5C 275.955,243.369 284.288,241.702 292.5,239.5 Z"/></g>
<g><path style="opacity:1" fill="#a6131a" d="M 267.5,244.5 C 286.856,276.034 306.856,307.201 327.5,338C 375.151,339.783 422.818,340.95 470.5,341.5C 470.5,342.5 470.5,343.5 470.5,344.5C 405.808,343.575 341.141,341.408 276.5,338C 257.439,309.365 238.772,280.532 220.5,251.5C 236.236,249.552 251.902,247.219 267.5,244.5 Z"/></g>
<g><path style="opacity:1" fill="#9f151a" d="M 220.5,251.5 C 238.772,280.532 257.439,309.365 276.5,338C 341.141,341.408 405.808,343.575 470.5,344.5C 470.5,344.833 470.5,345.167 470.5,345.5C 425.831,344.833 381.165,344 336.5,343C 304.564,340.446 272.564,338.78 240.5,338C 222.449,310.726 204.782,283.226 187.5,255.5C 198.38,254.273 209.38,252.939 220.5,251.5 Z"/></g>
<g><path style="opacity:1" fill="#98161a" d="M 187.5,255.5 C 204.782,283.226 222.449,310.726 240.5,338C 272.564,338.78 304.564,340.446 336.5,343C 381.165,344 425.831,344.833 470.5,345.5C 470.5,346.167 470.5,346.833 470.5,347.5C 402.163,345.947 333.83,344.114 265.5,342C 269.5,341.667 273.5,341.333 277.5,341C 254.138,340.332 230.805,339.166 207.5,337.5C 199.833,325.187 191.833,313.187 183.5,301.5C 184.422,296.528 184.588,291.528 184,286.5C 182.822,277.1 181.322,267.767 179.5,258.5C 179.5,257.5 179.5,256.5 179.5,255.5C 182.167,255.5 184.833,255.5 187.5,255.5 Z"/></g>
<g><path style="opacity:1" fill="#86191b" d="M 127.5,294.5 C 119.654,298.214 111.321,300.548 102.5,301.5C 94.1933,288.184 85.86,274.851 77.5,261.5C 86.1846,261.312 94.8513,261.145 103.5,261C 110.707,271.244 117.54,281.744 124,292.5C 124.816,293.823 125.983,294.489 127.5,294.5 Z"/></g>
<g><path style="opacity:1" fill="#7b1919" d="M 40.5,261.5 C 52.8333,261.5 65.1667,261.5 77.5,261.5C 85.86,274.851 94.1933,288.184 102.5,301.5C 101.448,301.649 100.448,301.483 99.5,301C 95.5686,294.695 90.2352,293.028 83.5,296C 80.9911,305.5 75.8244,313.333 68,319.5C 68.5218,321.88 68.3552,324.213 67.5,326.5C 65.9256,326.063 64.7589,325.063 64,323.5C 56.3916,311.264 48.5583,299.264 40.5,287.5C 40.5,278.833 40.5,270.167 40.5,261.5 Z"/></g>
<g><path style="opacity:1" fill="#8f1419" d="M 183.5,301.5 C 191.833,313.187 199.833,325.187 207.5,337.5C 230.805,339.166 254.138,340.332 277.5,341C 273.5,341.333 269.5,341.667 265.5,342C 333.83,344.114 402.163,345.947 470.5,347.5C 469.89,348.391 469.557,349.391 469.5,350.5C 401.966,349.845 334.633,347.845 267.5,344.5C 258.53,343.358 245.53,342.524 228.5,342C 231.5,341.667 234.5,341.333 237.5,341C 217.839,339.889 198.172,338.889 178.5,338C 173.118,330.729 168.118,323.229 163.5,315.5C 168.248,313.845 172.915,311.678 177.5,309C 179.639,306.522 181.639,304.022 183.5,301.5 Z"/></g>
<g><path style="opacity:1" fill="#88191b" d="M 163.5,315.5 C 168.118,323.229 173.118,330.729 178.5,338C 198.172,338.889 217.839,339.889 237.5,341C 234.5,341.333 231.5,341.667 228.5,342C 245.53,342.524 258.53,343.358 267.5,344.5C 236.831,343.57 206.164,342.57 175.5,341.5C 159.344,339.86 143.01,338.527 126.5,337.5C 122.473,331.149 118.473,324.816 114.5,318.5C 130.865,317.955 147.198,316.955 163.5,315.5 Z"/></g>
<g><path style="opacity:1" fill="#7f1a1a" d="M 114.5,318.5 C 118.473,324.816 122.473,331.149 126.5,337.5C 143.01,338.527 159.344,339.86 175.5,341.5C 171.818,341.335 168.152,341.501 164.5,342C 177.492,342.818 190.492,343.484 203.5,344C 206.319,344.103 208.319,344.603 209.5,345.5C 164.471,343.732 119.471,341.399 74.5,338.5C 84.0762,324.244 97.4095,317.578 114.5,318.5 Z"/></g>
<g><path style="opacity:1" fill="#551011" d="M 40.5,343.5 C 81.8935,346.437 123.227,350.103 164.5,354.5C 165.844,356.529 167.177,358.529 168.5,360.5C 129.832,360.667 91.1652,360.5 52.5,360C 44.6998,357.223 40.6998,351.723 40.5,343.5 Z"/></g>
<g><path style="opacity:1" fill="#7b0c12" d="M 175.5,341.5 C 206.164,342.57 236.831,343.57 267.5,344.5C 334.633,347.845 401.966,349.845 469.5,350.5C 467.258,355.237 463.592,358.404 458.5,360C 419.501,360.5 380.501,360.667 341.5,360.5C 340.198,354.257 336.365,351.59 330,352.5C 289.656,350.521 249.489,348.188 209.5,345.5C 208.319,344.603 206.319,344.103 203.5,344C 190.492,343.484 177.492,342.818 164.5,342C 168.152,341.501 171.818,341.335 175.5,341.5 Z"/></g>
<g><path style="opacity:1" fill="#651012" d="M 40.5,339.5 C 110.552,343.687 180.552,348.52 250.5,354C 252.232,355.972 253.565,358.139 254.5,360.5C 225.833,360.5 197.167,360.5 168.5,360.5C 167.177,358.529 165.844,356.529 164.5,354.5C 123.227,350.103 81.8935,346.437 40.5,343.5C 40.5,342.167 40.5,340.833 40.5,339.5 Z"/></g>
<g><path style="opacity:1" fill="#701114" d="M 40.5,287.5 C 48.5583,299.264 56.3916,311.264 64,323.5C 64.7589,325.063 65.9256,326.063 67.5,326.5C 66.6091,327.261 65.9424,328.261 65.5,329.5C 66.1393,332.475 66.6393,335.475 67,338.5C 69.494,341.086 71.994,341.086 74.5,338.5C 119.471,341.399 164.471,343.732 209.5,345.5C 249.489,348.188 289.656,350.521 330,352.5C 336.365,351.59 340.198,354.257 341.5,360.5C 312.5,360.5 283.5,360.5 254.5,360.5C 253.565,358.139 252.232,355.972 250.5,354C 180.552,348.52 110.552,343.687 40.5,339.5C 40.5,322.167 40.5,304.833 40.5,287.5 Z"/></g>
<g><path style="opacity:1" fill="#0b0b0b" d="M 277.5,392.5 C 285.967,390.976 293.3,393.143 299.5,399C 297.667,400.833 295.833,402.667 294,404.5C 289.689,400.175 284.523,398.675 278.5,400C 274.228,402.693 273.561,406.027 276.5,410C 283.653,412.608 290.653,415.608 297.5,419C 301.329,425.318 301.496,431.818 298,438.5C 291.581,443.183 284.414,444.683 276.5,443C 272.136,441.488 268.47,438.988 265.5,435.5C 266.833,433.5 268.5,431.833 270.5,430.5C 277.542,437.534 285.042,438.201 293,432.5C 294.123,429.044 293.29,426.21 290.5,424C 284.421,421.863 278.421,419.529 272.5,417C 263.377,406.711 265.044,398.544 277.5,392.5 Z"/></g>
<g><path style="opacity:1" fill="#060606" d="M 390.5,392.5 C 397.877,391.689 404.877,392.856 411.5,396C 414.157,398.156 415.49,400.656 415.5,403.5C 411.961,404.735 408.461,406.068 405,407.5C 399.589,403.188 394.589,403.522 390,408.5C 388.494,413.746 388.161,419.079 389,424.5C 392.113,431.613 397.28,433.446 404.5,430C 405.669,427.993 406.335,425.827 406.5,423.5C 404.167,423.5 401.833,423.5 399.5,423.5C 399.5,420.5 399.5,417.5 399.5,414.5C 406.167,414.5 412.833,414.5 419.5,414.5C 421.465,436.036 411.798,445.536 390.5,443C 382.261,440.427 377.095,434.927 375,426.5C 373.378,417.319 374.711,408.653 379,400.5C 382.482,397.161 386.315,394.494 390.5,392.5 Z"/></g>
<g><path style="opacity:1" fill="#808080" d="M 63.5,393.5 C 55.8333,393.5 48.1667,393.5 40.5,393.5C 40.5,409.833 40.5,426.167 40.5,442.5C 48.1667,442.5 55.8333,442.5 63.5,442.5C 55.6841,443.492 47.6841,443.826 39.5,443.5C 39.5,426.5 39.5,409.5 39.5,392.5C 47.6841,392.174 55.6841,392.508 63.5,393.5 Z"/></g>
<g><path style="opacity:1" fill="#090909" d="M 63.5,393.5 C 73.8677,396.073 77.0344,402.406 73,412.5C 71.786,414.049 70.286,415.215 68.5,416C 74.1367,417.798 76.8034,421.632 76.5,427.5C 76.7731,436.557 72.4398,441.557 63.5,442.5C 55.8333,442.5 48.1667,442.5 40.5,442.5C 40.5,426.167 40.5,409.833 40.5,393.5C 48.1667,393.5 55.8333,393.5 63.5,393.5 Z"/></g>
<g><path style="opacity:1" fill="#050505" d="M 92.5,424.5 C 94.0432,434.607 99.7099,438.107 109.5,435C 112.563,432.97 114.229,430.136 114.5,426.5C 115.495,415.679 115.828,404.679 115.5,393.5C 117.833,393.5 120.167,393.5 122.5,393.5C 122.667,404.838 122.5,416.172 122,427.5C 121.158,435.343 116.991,440.51 109.5,443C 96.0056,446.097 88.0056,440.93 85.5,427.5C 85.5,416.167 85.5,404.833 85.5,393.5C 87.5,393.5 89.5,393.5 91.5,393.5C 91.1724,404.014 91.5058,414.347 92.5,424.5 Z"/></g>
<g><path style="opacity:1" fill="#4d4d4d" d="M 92.5,424.5 C 91.5058,414.347 91.1724,404.014 91.5,393.5C 89.5,393.5 87.5,393.5 85.5,393.5C 85.5,404.833 85.5,416.167 85.5,427.5C 84.5051,416.012 84.1717,404.345 84.5,392.5C 87.1667,392.5 89.8333,392.5 92.5,392.5C 92.5,403.167 92.5,413.833 92.5,424.5 Z"/></g>
<g><path style="opacity:1" fill="#727272" d="M 122.5,393.5 C 120.167,393.5 117.833,393.5 115.5,393.5C 115.828,404.679 115.495,415.679 114.5,426.5C 114.5,415.167 114.5,403.833 114.5,392.5C 117.385,392.194 120.052,392.527 122.5,393.5 Z"/></g>
<g><path style="opacity:1" fill="#787878" d="M 140.5,393.5 C 138.167,393.5 135.833,393.5 133.5,393.5C 133.5,409.833 133.5,426.167 133.5,442.5C 135.5,442.5 137.5,442.5 139.5,442.5C 139.833,442.5 140.167,442.5 140.5,442.5C 138.052,443.473 135.385,443.806 132.5,443.5C 132.5,426.5 132.5,409.5 132.5,392.5C 135.385,392.194 138.052,392.527 140.5,393.5 Z"/></g>
<g><path style="opacity:1" fill="#030303" d="M 140.5,393.5 C 148.225,405.268 155.725,417.268 163,429.5C 163.5,417.505 163.667,405.505 163.5,393.5C 165.833,393.5 168.167,393.5 170.5,393.5C 170.5,409.833 170.5,426.167 170.5,442.5C 167.315,442.98 164.481,442.314 162,440.5C 155.156,429.472 148.322,418.472 141.5,407.5C 141.217,406.711 140.717,406.044 140,405.5C 139.5,417.829 139.333,430.162 139.5,442.5C 137.5,442.5 135.5,442.5 133.5,442.5C 133.5,426.167 133.5,409.833 133.5,393.5C 135.833,393.5 138.167,393.5 140.5,393.5 Z"/></g>
<g><path style="opacity:1" fill="#050505" d="M 181.5,393.5 C 188.175,393.334 194.842,393.5 201.5,394C 213.521,397.34 219.521,405.34 219.5,418C 219.506,430.644 213.506,438.644 201.5,442C 194.842,442.5 188.175,442.666 181.5,442.5C 181.5,426.167 181.5,409.833 181.5,393.5 Z"/></g>
<g><path style="opacity:1" fill="#070707" d="M 248.5,419.5 C 243.5,419.5 238.5,419.5 233.5,419.5C 233.179,425.026 233.512,430.36 234.5,435.5C 242.833,435.5 251.167,435.5 259.5,435.5C 259.5,437.833 259.5,440.167 259.5,442.5C 248.5,442.5 237.5,442.5 226.5,442.5C 226.5,426.167 226.5,409.833 226.5,393.5C 237.167,393.5 247.833,393.5 258.5,393.5C 258.5,395.833 258.5,398.167 258.5,400.5C 250.5,400.5 242.5,400.5 234.5,400.5C 234.5,404.5 234.5,408.5 234.5,412.5C 239.167,412.5 243.833,412.5 248.5,412.5C 248.5,414.833 248.5,417.167 248.5,419.5 Z"/></g>
<g><path style="opacity:1" fill="#000000" d="M 324.5,430.5 C 330.31,431.49 336.31,431.823 342.5,431.5C 342.5,435.167 342.5,438.833 342.5,442.5C 331.833,442.5 321.167,442.5 310.5,442.5C 310.5,426.167 310.5,409.833 310.5,393.5C 315.167,393.5 319.833,393.5 324.5,393.5C 324.5,405.833 324.5,418.167 324.5,430.5 Z"/></g>
<g><path style="opacity:1" fill="#010101" d="M 351.5,393.5 C 356.167,393.5 360.833,393.5 365.5,393.5C 365.5,409.833 365.5,426.167 365.5,442.5C 360.833,442.5 356.167,442.5 351.5,442.5C 351.5,426.167 351.5,409.833 351.5,393.5 Z"/></g>
<g><path style="opacity:1" fill="#060606" d="M 470.5,441.5 C 465.6,442.8 460.6,442.8 455.5,441.5C 455.007,439.194 454.674,436.861 454.5,434.5C 448.833,434.5 443.167,434.5 437.5,434.5C 437.007,436.806 436.674,439.139 436.5,441.5C 431.595,442.445 426.595,442.779 421.5,442.5C 426.693,426.755 432.193,411.089 438,395.5C 440.383,394.234 443.05,393.568 446,393.5C 448.5,393.833 451,394.167 453.5,394.5C 459.371,410.114 465.037,425.781 470.5,441.5 Z"/></g>
<g><path style="opacity:1" fill="#f3f3f3" d="M 47.5,399.5 C 52.5111,399.334 57.5111,399.501 62.5,400C 68.7531,403.579 69.0865,407.579 63.5,412C 58.1771,412.499 52.8437,412.666 47.5,412.5C 47.5,408.167 47.5,403.833 47.5,399.5 Z"/></g>
<g><path style="opacity:1" fill="#f5f5f5" d="M 188.5,400.5 C 206.462,398.63 213.962,406.63 211,424.5C 209.474,430.026 205.974,433.526 200.5,435C 196.514,435.499 192.514,435.666 188.5,435.5C 188.5,423.833 188.5,412.167 188.5,400.5 Z"/></g>
<g><path style="opacity:1" fill="#ebebeb" d="M 444.5,409.5 C 445.496,409.414 446.329,409.748 447,410.5C 448.684,414.716 449.851,419.049 450.5,423.5C 447.5,423.5 444.5,423.5 441.5,423.5C 442.497,418.839 443.497,414.173 444.5,409.5 Z"/></g>
<g><path style="opacity:1" fill="#414141" d="M 141.5,407.5 C 140.505,418.988 140.172,430.655 140.5,442.5C 140.167,442.5 139.833,442.5 139.5,442.5C 139.333,430.162 139.5,417.829 140,405.5C 140.717,406.044 141.217,406.711 141.5,407.5 Z"/></g>
<g><path style="opacity:1" fill="#f4f4f4" d="M 47.5,419.5 C 53.1764,419.334 58.8431,419.501 64.5,420C 70.747,424.514 71.0804,429.514 65.5,435C 59.5933,436.361 53.5933,436.861 47.5,436.5C 47.5,430.833 47.5,425.167 47.5,419.5 Z"/></g>
<g><path style="opacity:1" fill="#6c6c6c" d="M 248.5,419.5 C 244.03,420.486 239.363,420.819 234.5,420.5C 234.5,425.5 234.5,430.5 234.5,435.5C 233.512,430.36 233.179,425.026 233.5,419.5C 238.5,419.5 243.5,419.5 248.5,419.5 Z"/></g>
<g><path style="opacity:1" fill="#6d6d6d" d="M 324.5,430.5 C 330.833,430.5 337.167,430.5 343.5,430.5C 343.5,434.833 343.5,439.167 343.5,443.5C 332.321,443.828 321.321,443.495 310.5,442.5C 321.321,443.495 332.321,443.828 343.5,443.5C 343.5,439.167 343.5,434.833 343.5,430.5C 337.167,430.5 330.833,430.5 324.5,430.5 Z"/></g>
<g><path style="opacity:1" fill="#a2a2a2" d="M 436.5,441.5 C 434.429,442.809 431.929,443.475 429,443.5C 426.31,443.497 423.81,443.164 421.5,442.5C 426.595,442.779 431.595,442.445 436.5,441.5 Z"/></g>
<g><path style="opacity:1" fill="#a5a5a5" d="M 455.5,441.5 C 460.6,442.8 465.6,442.8 470.5,441.5C 471.043,441.56 471.376,441.893 471.5,442.5C 468.833,442.833 466.167,443.167 463.5,443.5C 460.41,443.478 457.743,442.812 455.5,441.5 Z"/></g>
</svg>
