<svg width="24" height="23" viewBox="0 0 24 23" fill="none" xmlns="http://www.w3.org/2000/svg">
<path d="M12.8192 22.1999H1.32462C0.592836 22.1999 0 21.666 0 21.0077V1.79206C0 1.13355 0.592929 0.599915 1.32462 0.599915H22.6755C23.407 0.599915 24 1.13355 24 1.79206V21.0077C24 21.6661 23.4069 22.1999 22.6755 22.1999H16.5597V13.8352H19.6793L20.1464 10.5753H16.5597V8.4941C16.5597 7.55029 16.8509 6.90712 18.3546 6.90712L20.2727 6.90636V3.99071C19.9409 3.95098 18.8024 3.86222 17.4778 3.86222C14.7124 3.86222 12.8192 5.3814 12.8192 8.17126V10.5753H9.69156V13.8352H12.8192V22.1999Z" fill="white"/>
</svg>
