<svg width="1440" height="556" viewBox="0 0 1440 556" fill="none" xmlns="http://www.w3.org/2000/svg">
<g clip-path="url(#clip0_967_386)">
<rect width="1440" height="556" fill="#03070A"/>
<rect width="2.85054" height="159.665" transform="matrix(-0.00791067 -0.999969 -0.999969 0.00791067 1130.68 70.8503)" fill="url(#paint0_linear_967_386)"/>
<rect width="2.85054" height="159.665" transform="matrix(0.00791067 0.999969 0.999969 -0.00791067 307.513 484.893)" fill="url(#paint1_linear_967_386)"/>
<rect width="2.85054" height="159.665" transform="matrix(-0.00791067 -0.999969 -0.999969 0.00791067 1166.19 76.4724)" fill="url(#paint2_linear_967_386)"/>
<rect width="2.85054" height="159.665" transform="matrix(0.00791067 0.999969 0.999969 -0.00791067 280 478.263)" fill="url(#paint3_linear_967_386)"/>
<path d="M1230.26 87.5427L1002.88 191.849L4.00024 190.592L4.13173 86.1008L1230.26 87.5427Z" fill="url(#paint4_linear_967_386)" fill-opacity="0.4"/>
<path d="M226 464.592L453.384 360.286L1452.26 361.543L1452.13 466.034L226 464.592Z" fill="url(#paint5_linear_967_386)" fill-opacity="0.4"/>
<circle cx="4" cy="466" r="83" fill="url(#paint6_radial_967_386)"/>
<circle cx="4" cy="466" r="83" fill="black" fill-opacity="0.5"/>
</g>
<defs>
<linearGradient id="paint0_linear_967_386" x1="1.42527" y1="0" x2="1.42527" y2="159.665" gradientUnits="userSpaceOnUse">
<stop stop-color="#54240D"/>
<stop offset="1" stop-color="#54240D" stop-opacity="0"/>
</linearGradient>
<linearGradient id="paint1_linear_967_386" x1="1.42527" y1="0" x2="1.42527" y2="159.665" gradientUnits="userSpaceOnUse">
<stop stop-color="#54240D"/>
<stop offset="1" stop-color="#54240D" stop-opacity="0"/>
</linearGradient>
<linearGradient id="paint2_linear_967_386" x1="1.42527" y1="0" x2="1.42527" y2="159.665" gradientUnits="userSpaceOnUse">
<stop stop-color="#54240D"/>
<stop offset="1" stop-color="#54240D" stop-opacity="0"/>
</linearGradient>
<linearGradient id="paint3_linear_967_386" x1="1.42527" y1="0" x2="1.42527" y2="159.665" gradientUnits="userSpaceOnUse">
<stop stop-color="#54240D"/>
<stop offset="1" stop-color="#54240D" stop-opacity="0"/>
</linearGradient>
<linearGradient id="paint4_linear_967_386" x1="861.485" y1="144.892" x2="126.854" y2="93.4256" gradientUnits="userSpaceOnUse">
<stop stop-color="#FF8A00"/>
<stop offset="1" stop-color="#FF8A00" stop-opacity="0"/>
</linearGradient>
<linearGradient id="paint5_linear_967_386" x1="594.774" y1="407.243" x2="1329.41" y2="458.709" gradientUnits="userSpaceOnUse">
<stop stop-color="#FF8A00"/>
<stop offset="1" stop-color="#FF8A00" stop-opacity="0"/>
</linearGradient>
<radialGradient id="paint6_radial_967_386" cx="0" cy="0" r="1" gradientUnits="userSpaceOnUse" gradientTransform="translate(-9.83334 423.686) rotate(65.1975) scale(129.158)">
<stop stop-color="#FFBF00"/>
<stop offset="0.36742" stop-color="#FF8A00"/>
<stop offset="0.752843" stop-color="#F28C28"/>
<stop offset="1" stop-color="#CC5500"/>
</radialGradient>
<clipPath id="clip0_967_386">
<rect width="1440" height="556" fill="white"/>
</clipPath>
</defs>
</svg>
