<svg width="24" height="19" viewBox="0 0 24 19" fill="none" xmlns="http://www.w3.org/2000/svg">
<path d="M23.9999 2.53084C23.1181 2.89227 22.1686 3.13669 21.1727 3.2459C22.1898 2.68425 22.9702 1.79368 23.3378 0.732791C22.3856 1.25283 21.3333 1.63117 20.2091 1.83398C19.3132 0.951209 18.0327 0.399963 16.6155 0.399963C13.8982 0.399963 11.6935 2.43463 11.6935 4.94384C11.6935 5.30007 11.7358 5.6459 11.8203 5.97873C7.72806 5.78891 4.10066 3.98176 1.67066 1.22943C1.24664 1.90289 1.00434 2.68425 1.00434 3.51632C1.00434 5.09205 1.87351 6.48317 3.19487 7.29834C2.38909 7.27624 1.62839 7.06952 0.963489 6.73149V6.7874C0.963489 8.98978 2.66097 10.8268 4.91489 11.2429C4.50214 11.3495 4.06685 11.4028 3.61748 11.4028C3.30052 11.4028 2.99061 11.3755 2.69055 11.3222C3.31742 13.1267 5.13465 14.4411 7.28995 14.4762C5.60515 15.6957 3.48083 16.4225 1.17479 16.4225C0.77754 16.4225 0.384513 16.4017 -6.10352e-05 16.3601C2.1792 17.6472 4.76838 18.4 7.54775 18.4C16.6057 18.4 21.5573 11.4769 21.5573 5.47169C21.5573 5.27407 21.553 5.07645 21.5446 4.88274C22.5067 4.24178 23.3421 3.44222 23.9999 2.53084Z" fill="white"/>
</svg>
