<svg width="24" height="20" viewBox="0 0 24 20" fill="none" xmlns="http://www.w3.org/2000/svg">
<path d="M23.9879 5.31963C23.8835 7.44965 22.2494 10.3614 19.0969 14.0561C15.8344 17.9195 13.07 19.8499 10.8107 19.8499C9.4137 19.8499 8.22975 18.6754 7.26312 16.3187C6.61541 14.1565 5.97193 11.9943 5.32563 9.83852C4.60595 7.48056 3.83547 6.30222 3.01137 6.30222C2.83215 6.30222 2.20702 6.64606 1.12891 7.33504L0 6.00732C1.18253 5.06078 2.34813 4.11038 3.49821 3.16256C5.07304 1.91855 6.25698 1.26563 7.04722 1.19738C8.90992 1.03254 10.0586 2.19542 10.4918 4.68217C10.9532 7.36723 11.2778 9.03622 11.457 9.69043C11.9961 11.9157 12.5859 13.0258 13.2322 13.0258C13.7332 13.0258 14.4867 12.3072 15.4915 10.8688C16.4962 9.42771 17.031 8.33308 17.1044 7.57843C17.2483 6.33442 16.7107 5.71627 15.4915 5.71627C14.9171 5.71627 14.3245 5.82702 13.7163 6.05883C14.9016 2.5573 17.1594 0.854823 20.4954 0.953984C22.9663 1.01709 24.1333 2.47488 23.9879 5.31963Z" fill="white"/>
</svg>
