<svg width="24" height="17" viewBox="0 0 24 17" fill="none" xmlns="http://www.w3.org/2000/svg">
<path fill-rule="evenodd" clip-rule="evenodd" d="M22.806 1.8913C23.5252 2.55138 23.76 4.05031 23.76 4.05031C23.76 4.05031 24 5.81096 24 7.57094V9.22146C24 10.9821 23.76 12.7421 23.76 12.7421C23.76 12.7421 23.5252 14.241 22.806 14.9011C21.9837 15.6819 21.0719 15.7626 20.5565 15.8082C20.4998 15.8132 20.4479 15.8178 20.4015 15.8229C17.043 16.0431 12 16.0499 12 16.0499C12 16.0499 5.76 15.9983 3.84 15.831C3.74903 15.8156 3.63876 15.8037 3.51388 15.7901C2.9057 15.724 1.95113 15.6202 1.19325 14.9011C0.474 14.241 0.24 12.7421 0.24 12.7421C0.24 12.7421 0 10.9821 0 9.22146V7.57094C0 5.81096 0.24 4.05031 0.24 4.05031C0.24 4.05031 0.474 2.55138 1.19325 1.8913C2.0174 1.10935 2.93006 1.02955 3.44548 0.984476C3.50136 0.979589 3.55258 0.975111 3.5985 0.970191C6.957 0.749939 11.9947 0.749939 11.9947 0.749939H12.0052C12.0052 0.749939 17.043 0.749939 20.4015 0.970191C20.4474 0.975118 20.4987 0.979603 20.5546 0.984498C21.0696 1.02957 21.9827 1.10948 22.806 1.8913ZM9.52127 5.10936L9.52202 11.2213L16.0058 8.17589L9.52127 5.10936Z" fill="white"/>
</svg>
